<?xml version="1.0" encoding="utf-8"?>
<!-- Generator: Adobe Illustrator 22.1.0, SVG Export Plug-In . SVG Version: 6.00 Build 0)  -->
<svg version="1.1" id="Layer_1" xmlns="http://www.w3.org/2000/svg" xmlns:xlink="http://www.w3.org/1999/xlink" x="0px" y="0px"
	 viewBox="0 0 199.1 277.5" style="enable-background:new 0 0 199.1 277.5;" xml:space="preserve">
<style type="text/css">
	.st0{fill:#FFFFFF;}
</style>
<path class="st0" d="M6.5,190.2v-16.3c1.8,0.5,3.6,0.9,5.6,0.9c7.7,0,14.4-4.1,18.2-10.2l69.3,28.9c-0.2,1.1-0.3,2.1-0.3,3.3
	c0,6.3,3.5,11.7,8.6,14.6l-10.4,55.9L6.5,190.2z M192.6,131.5l-42.9-33.8c3.4-3.8,5.5-8.8,5.5-14.2c0-8.9-5.5-16.5-13.2-19.7
	l9.6-51.1c22.5,5.5,36.6,13,41,15.6V131.5z M133.9,98.3c-8.2,0-14.8-6.6-14.8-14.8c0-8.2,6.6-14.8,14.8-14.8
	c8.2,0,14.8,6.6,14.8,14.8C148.7,91.7,142.1,98.3,133.9,98.3 M115.9,186.6c5.6,0,10.1,4.5,10.1,10.1c0,5.6-4.5,10.1-10.1,10.1
	c-5.6,0-10.1-4.5-10.1-10.1C105.8,191.1,110.3,186.6,115.9,186.6 M32,145.8l85.2-49.1c2.9,3.7,7.1,6.4,11.9,7.6l-14.7,75.9
	c-5.1,0.5-9.6,3.2-12.3,7.3l-69.3-28.9c0.4-1.6,0.6-3.3,0.6-5.1C33.5,150.7,32.9,148.2,32,145.8 M6.5,143.1c0-1.4,0.1-2.6,0.2-3.5
	c1.5-0.6,3.3-1,5.5-1c8.2,0,14.8,6.6,14.8,14.8c0,8.2-6.6,14.8-14.8,14.8c-1.8,0-3.6-0.5-5.4-1.2c-0.2-3-0.2-9.7-0.2-13.6V143.1z
	 M132.1,193.2c-1.3-5.8-5.6-10.6-11.2-12.4l14.7-76.1c3.2-0.2,6.3-1.2,9-2.8l48.1,37.9v48.8L132.1,193.2z M98.5,6.5
	c0.3,0,0.7,0,1.1,0c17.5,0.1,32.7,2,45.6,4.7l-9.5,51c-0.6,0-1.2-0.1-1.8-0.1c-7.3,0-13.8,3.7-17.6,9.3L42.9,13.6
	C57.5,9.7,76.2,6.5,98.5,6.5 M6.5,120.1V28.2c3.5-2.1,13.3-7.5,28.7-12.3l78.2,61.7c-0.5,1.9-0.8,3.9-0.8,5.9c0,2.6,0.5,5.2,1.4,7.5
	l-85.2,49.1c-3.9-4.9-9.9-8-16.6-8c-2,0-3.9,0.2-5.6,0.7V120.1z M104.5,264.9l9.6-51.7c0.6,0.1,1.2,0.1,1.7,0.1
	c8.1,0,14.9-5.9,16.3-13.6l53.9-4.1L104.5,264.9z M197.7,23.7c-1.4-1-36.1-23.4-98-23.7c-0.4,0-0.7,0-1.1,0
	C37.2,0,2.9,22.7,1.5,23.7l-1.4,1v95.5v22.6c0,1.9,0,4.2,0,7.2l0,3.6v20.1v19.6l99.6,84.4l99.5-84.4V24.7L197.7,23.7z"/>
</svg>
